<svg width="24" height="24" viewBox="0 0 22 22" fill="none" xmlns="http://www.w3.org/2000/svg">
<path d="M3.34977 14.9647H0.247191V4.97355H3.34977V14.9647ZM1.79681 3.61066C0.804707 3.61066 0 2.78892 0 1.79681C7.10106e-09 1.32027 0.189306 0.863241 0.526274 0.526274C0.863242 0.189306 1.32027 0 1.79681 0C2.27336 0 2.73038 0.189306 3.06735 0.526274C3.40432 0.863241 3.59362 1.32027 3.59362 1.79681C3.59362 2.78892 2.78858 3.61066 1.79681 3.61066ZM14.9617 14.9647H11.8658V10.1011C11.8658 8.94197 11.8425 7.45548 10.2528 7.45548C8.63966 7.45548 8.39247 8.71482 8.39247 10.0176V14.9647H5.29323V4.97355H8.26888V6.33644H8.3123C8.72651 5.55144 9.73833 4.72302 11.2479 4.72302C14.3879 4.72302 14.9651 6.79074 14.9651 9.47644V14.9647H14.9617Z" fill="black"/>
</svg>
