<svg width="22" height="20" viewBox="0 0 28 23" fill="none" xmlns="http://www.w3.org/2000/svg">
<path d="M25.1219 5.66751C25.1397 5.91623 25.1397 6.165 25.1397 6.41372C25.1397 14 19.3656 22.7412 8.81221 22.7412C5.56092 22.7412 2.54063 21.7995 0 20.1651C0.461947 20.2183 0.906066 20.2361 1.38579 20.2361C4.06849 20.2361 6.53808 19.33 8.51017 17.7843C5.98732 17.731 3.87309 16.0787 3.14465 13.8046C3.50001 13.8579 3.85532 13.8934 4.22845 13.8934C4.74367 13.8934 5.25893 13.8223 5.7386 13.698C3.10916 13.165 1.13701 10.8553 1.13701 8.066V7.99496C1.90095 8.42136 2.78935 8.68785 3.73091 8.72335C2.18521 7.69287 1.17256 5.934 1.17256 3.94413C1.17256 2.87816 1.45677 1.901 1.95427 1.0482C4.77916 4.53044 9.02539 6.80452 13.7868 7.05329C13.698 6.62689 13.6446 6.18277 13.6446 5.7386C13.6446 2.57612 16.203 0 19.3832 0C21.0355 0 22.5279 0.692893 23.5761 1.81219C24.8731 1.56347 26.1167 1.08375 27.2183 0.4264C26.7918 1.75892 25.8858 2.87821 24.6954 3.58883C25.8503 3.46452 26.9696 3.14465 28 2.70053C27.2184 3.83755 26.2412 4.8502 25.1219 5.66751Z" fill="#252422"/>
</svg>
